# xmcd CD database file
#
# Track frame offsets:
#	150
#	29550
#	63720
#	82730
#	112505
#	134385
#	156982
#	180427
#	200734
#	224807
#	237395
#	267347
#	300542
#
# Disc length: 4393 seconds
#
# Revision: 0
# Processed by: cddbd v1.5.2PL0 Copyright (c) Steve Scherf et al.
# Submitted via: CDex 1.70beta2
#
DISCID=b911270d
DTITLE=Ruben Blades - hoy y siempre
DYEAR=1900
DGENRE=Salsa
TTITLE0=Ojos de Perro Azul
TTITLE1=Sopresa
TTITLE2=Cameleon
TTITLE3=La Mora
TTITLE4=Eres mi cancion
TTITLE5=Plantacion Adentro
TTITLE6=Privilegio
TTITLE7=Caina
TTITLE8=Siembra
TTITLE9=Caminando
TTITLE10=Plastico
TTITLE11=Pedro Navaja
TTITLE12=Desapariciones
EXTD=
EXTT0=
EXTT1=
EXTT2=
EXTT3=
EXTT4=
EXTT5=
EXTT6=
EXTT7=
EXTT8=
EXTT9=
EXTT10=
EXTT11=
EXTT12=
PLAYORDER=
